<?xml version="1.0" encoding="UTF-8"?>
<svg id="Layer_1" xmlns="http://www.w3.org/2000/svg" xmlns:xlink="http://www.w3.org/1999/xlink" viewBox="0 0 420.75 377.25">
  <defs>
    <style>
      .cls-1 {
        fill: #25a87b;
      }

      .cls-2 {
        fill: #0b435b;
      }

      .cls-3 {
        fill: none;
      }

      .cls-4 {
        fill: #f16d14;
      }

      .cls-5 {
        fill: #ed2040;
      }

      .cls-6 {
        clip-path: url(#clippath);
      }
    </style>
    <clipPath id="clippath">
      <rect class="cls-3" width="420.75" height="377.25"/>
    </clipPath>
  </defs>
  <g class="cls-6">
    <path class="cls-5" d="M219.54,262.1c-13.16,0-26.32,0-39.48,0-4.8,0-5.73-.78-5.77-5.61-.08-10.03.04-20.07-.04-30.1-.02-2.23.8-3.01,2.96-2.94,3.52.1,7.04.09,10.55,0,3.94-.09,7.09-2.51,7.11-5.29.02-3.5-2.47-5.48-7.02-5.52-3.39-.03-6.78-.13-10.16.02-2.28.1-3.29-.66-3.47-3.01-1.03-13.68.58-26.48,11.34-36.52,3.99-3.72,3.8-8.42,1.98-13.01-1.05-2.64-.39-3.2,2.13-3.2,20.2.03,40.39.02,60.59-.03,2.33,0,2.95.48,2.03,2.92-2.03,5.43-1.18,10.11,3.23,14.53,6.51,6.54,10.22,14.65,10.24,24.08.05,18.89.02,37.78,0,56.68,0,5.61-1.44,6.96-7.13,6.96-13.03,0-26.06,0-39.09,0v.02ZM202.92,182.46c.13-2.88-2.19-3.96-4.04-5.28-1.84-1.31-2.84.65-3.93,1.5-4.02,3.14-6.7,7.54-10.07,11.3-1.91,2.14-1.82,5.24-.03,7.65,1.06,1.44,2.17,3.76,4.5,3.04,2.29-.7,4.23-2.55,4.34-4.99.19-4.17,2.7-6.38,5.91-8,2.31-1.17,3.19-2.89,3.31-5.23ZM188.68,235.41c-3,.04-5,2.28-4.96,5.55.03,2.71,3.36,6.02,5.93,5.9,2.5-.12,4.79-3.03,4.76-6.06-.02-3.18-2.42-5.43-5.73-5.38Z"/>
    <path class="cls-1" d="M148.77,262.14c-5.86.18-11.8.59-17.49-.97-11.06-3.04-21.09-7.85-29.09-16.57-6.82-7.43-12.23-15.6-15.76-24.99-3.33-8.84-4.96-18.02-4.98-27.49,0-2.39.86-3.5,3.28-3.88,12.55-1.99,25.06-1.71,36.95,2.75,9.7,3.64,18.04,9.58,25.04,17.64,12,13.8,17.62,29.71,17.97,47.73.1,5.31-.38,5.72-5.76,5.78-3.38.04-6.77,0-10.16,0ZM104.73,211.34c.36,1.11.43,1.49.61,1.82,3.61,6.85,9,12.37,14.57,17.45,5.59,5.09,11.96,9.51,19.53,11.56.98.27,2.31.71,2.97-.08.88-1.06-.56-1.74-1.06-2.55-4.33-7.02-10.18-12.79-16.67-17.57-5.81-4.27-11.99-8.46-19.93-10.64Z"/>
    <path class="cls-4" d="M291.02,262.09c-3.64,0-7.29-.15-10.93.04-3.67.19-4.8-1.69-4.84-4.96-.09-8.02,1.25-15.8,3.71-23.4,3.41-10.51,9-19.81,16.68-27.69,3.3-3.39,6.91-6.55,11.02-9.13,14.99-9.41,31.28-11.13,48.37-8.68,2.69.39,3.76,1.59,3.66,4.39-.56,15.83-4.93,30.35-13.92,43.53-4.67,6.83-10.48,12.55-17.19,16.99-3.93,2.6-8.73,4.3-13.3,6.08-7.59,2.95-15.39,2.98-23.27,2.82ZM297.03,242.38c4.66-.15,8.8-.92,11.74-2.97,9.29-6.51,17.78-14.06,24.36-23.47.8-1.15,1.84-2.36,1.93-4.59-16.17,6.26-28.86,15.85-38.02,31.03Z"/>
    <path class="cls-4" d="M112.48,171.3c-7.01-.05-12.33-4.22-16.91-8.47-6.21-5.76-10.4-13.21-11.15-22.02-.55-6.46.82-12.39,5.51-17.17,2.67-2.72,6.32-2.75,9.79-3.19,6.1,2.38,6.67,2.07,6.61-3.59,1.94-7.13,5.72-12.54,13.54-13.81,8.15-1.32,14.8,1,20.32,7.59,9.7,11.58,11.08,24.39,6.94,38.32-.13.45-.62.8-.94,1.19-4.36,2.11-8.98,2.82-13.79,3.52-7.76,1.14-14.39,5.67-21.32,9.19-2.23,1.13-4.29,2.22-4.78,4.97,2.14,1.01,4.93.88,6.19,3.47ZM130.49,114.39c-.26-2.5-1.79-4.17-4.64-4.37-2.74-.19-4.81,2-4.76,4.9.05,2.93,1.7,4.75,4.49,4.72,2.88-.03,4.74-1.79,4.91-5.25Z"/>
    <path class="cls-2" d="M220.74,285.42c-28.41,0-56.81,0-85.22,0-4.88,0-7.84-2.47-7.87-6.59-.04-4.76,2.3-6.97,7.8-6.97,43.13-.03,86.26-.02,129.39-.02,13.81,0,27.62-.06,41.43,0,6.7.03,9.35,5.07,6.04,10.94-1.43,2.54-3.59,2.63-5.98,2.63-28.54,0-57.07,0-85.61,0v.02Z"/>
    <path class="cls-2" d="M219.64,147.59c-11.33,0-22.66.02-33.98,0-4.21,0-7.22-2.96-7.33-7.19-.08-3.12-.07-6.25-.06-9.37.03-7.68,2.87-10.61,10.59-10.63,20.96-.06,41.93-.04,62.89-.05.26,0,.52,0,.78,0,5.94.22,8.9,2.9,9.27,8.82.23,3.76.18,7.56-.03,11.32-.23,3.95-3.77,7.07-7.74,7.08-11.46.02-22.92,0-34.37,0v.02Z"/>
    <path class="cls-5" d="M339.79,133.91c5.19-.43,10.28-.81,14.85,2.68,10.32,7.88,11.73,22.37,3.35,30.89-6.55,6.67-14.8,8.2-22.19,4.27-2.28-1.21-6.96-.4-8.87,1.55-5.79,5.89-14.16,8.15-20.49,4.99-11.8-5.88-14.58-19.76-9.23-29.2,4.76-8.38,15.16-11.42,23.49-7.02-.33.84-.64,1.69-1.01,2.51-.86,1.91-1.35,3.86.93,5.04,2.34,1.21,4.52.44,5.56-1.85,2.87-6.32,7.3-10.97,13.59-13.87ZM335.68,152.5c-2.52-.36-4.03,1.02-4.11,3.86-.07,2.76,2.28,3.8,4.21,4.19,2.62.52,5.31-2.17,5.19-4.48-.17-3.19-2.35-3.65-5.29-3.57ZM304.28,153.98c-1.85.31-3.09,1.93-2.95,3.91.19,2.61,1.3,5.14,4.46,5.39,2.69.21,3.42-1.97,3.71-4.05.28-2.02-2.84-5.25-5.22-5.26Z"/>
    <path class="cls-2" d="M219.93,309.44c-21.89,0-43.79,0-65.68.01-2.75,0-5.35-.44-6.75-3.02-1.6-2.93-1.41-5.72.76-8.64,1.76-2.36,3.95-2.22,6.18-2.23,13.81-.09,27.63-.1,41.44-.09,29.71,0,59.42.03,89.13.06,2.6,0,5.18-.07,6.83,2.62,3.5,5.71.89,11.01-5.83,11.13-11.73.21-23.46.14-35.18.16-10.29.02-20.59,0-30.88,0Z"/>
    <path class="cls-1" d="M224.23,93.56c-1.59-6.46-.4-12.5,1.31-18.5,3.43-12.07,11.15-20.9,21.4-27.62,4.05-2.65,8.86-3.73,13.57-4.74,1.88-.4,3.72-.58,5.59-1.39,3.83-1.67,6.28.22,6.46,4.89.52,13.7-1.12,26.8-8.63,38.88-7.19,11.57-16.64,19.23-30.34,21.12-.77.11-1.56.19-2.33.19-3.6,0-4.16-.91-2.5-4.13,2.09-4.06,5.55-7.12,8.08-10.9,3.74-5.6,7.54-11.15,11.07-16.89.46-.74,1.37-1.62.64-2.41-.97-1.05-1.91.08-2.71.6-5.93,3.86-10.77,8.85-15.11,14.39-1.83,2.33-3.78,4.58-6.51,6.51Z"/>
    <path class="cls-2" d="M220.42,319.61c11.2,0,22.41-.01,33.61.01,3.68,0,6.77,3.07,6.92,6.75.17,4.1-1.94,6.53-6.25,6.9-2.2.19-4.43.11-6.64.11-20.45.01-40.9,0-61.36.03-3.33,0-6.27-.56-7.51-4.23-1.22-3.61.21-6.12,2.92-8.53,1.34-1.19,2.59-1,3.91-1,11.46-.05,22.93-.03,34.39-.03Z"/>
    <path class="cls-5" d="M298.85,95.87c-8.47.81-16.57-8.74-16.08-17.83.42-7.81,5.77-15.73,12.59-18.17,4.3-1.54,5.68-1.17,6.91,3,2.12,7.18,6.48,12.86,11.48,18.08,2.61,2.72,2.34,5.24.22,7.51-4.04,4.31-8.66,7.83-15.12,7.41Z"/>
    <path class="cls-4" d="M162.8,45.11c2.72.07,4.61.71,5.7,2.83,7.57,14.74,15.19,29.46,22.68,44.25,1.96,3.86.65,7.97-3.14,10.03-2.08,1.13-4.19,1.49-6.14-1.03-4.96-6.41-7.52-14.09-11.52-21.01-4.08-7.05-7.49-14.5-11.04-21.85-1.38-2.85-3.03-5.62-1.63-9.21,1.1-2.83,3.13-3.53,5.11-4.01Z"/>
    <path class="cls-4" d="M170.26,103.44c.25,3.62-2.17,5.42-4.53,6.87-2.31,1.42-4.17-.06-6.14-1.68-8.09-6.63-16.4-12.99-24.59-19.5-2.82-2.24-5.66-4.49-8.26-6.98-3.35-3.21-2.81-8.97,1.02-11.58,1.97-1.35,4.39-1.44,6.25.05,11.35,9.13,22.59,18.39,33.89,27.58,1.76,1.44,2.56,3.21,2.36,5.24Z"/>
    <path class="cls-1" d="M331.74,127.28c-1.94-.75-3.55.44-5.23.97-10.36,3.3-22.78-1.59-27.84-11.1-.74-1.38-1.16-2.79.33-4.22,5.94-5.71,17.72-8.25,25.11-4.6,3.62,1.79,6.57,4.93,9.82,7.46-.73,3.83-1.46,7.66-2.19,11.49Z"/>
    <path class="cls-4" d="M112.48,171.3c-1.26-2.59-4.05-2.46-6.19-3.47.49-2.75,2.55-3.84,4.78-4.97,6.93-3.51,13.56-8.05,21.32-9.19,4.8-.7,9.42-1.41,13.79-3.52-2.38,6.41-3.04,12.97-2.48,19.8.39,4.75-3.63,7.62-8.31,6.13-2.57-.82-4.91-2.32-7.36-3.51-1.25-1.16-2.63-1.84-4.36-1.06-2.46.31-4.92.39-7.39.02,0,0-.26-.2-.26-.2l-.26.19c-1.12.27-2.23.3-3.29-.23Z"/>
    <path class="cls-2" d="M331.74,127.28c.73-3.83,1.46-7.66,2.19-11.49,1.58-4.64,3.15-9.28,4.75-13.91.79-2.28,1.78-4.67,4.81-3.91,3.14.78,3.38,3.33,2.56,5.93-1.4,4.43-2.88,8.84-4.51,13.18-2.06,5.48-2.67,11.06-1.75,16.83-6.29,2.9-10.72,7.55-13.59,13.87-1.04,2.29-3.22,3.06-5.56,1.85-2.28-1.18-1.79-3.13-.93-5.04.37-.82.67-1.67,1.01-2.51,3.68-4.93,7.35-9.86,11.03-14.8Z"/>
    <path class="cls-1" d="M305.88,58.25c-.16-3.6,1.42-6.51,3.44-9.33,1.02-1.43,1.39-1.59,2.83-.26,3.12,2.89,4.54,6.29,4.18,10.42-.21,2.36.48,3.45,2.98,3.06,3.65-.58,6.29,1.65,9.13,3.34,1.31.78,1.16,1.57.12,2.4-.82.65-1.68,1.23-2.51,1.85-1.86,1.38-2.99,2.92-1.05,5.09.08.09.15.22.19.34.73,2.27,2.87,5.19.62,6.77-2.39,1.68-5.77.28-7.84-1.79-4.77-4.76-8.02-10.64-11.1-16.58-.86-1.65-.94-3.5-.97-5.31Z"/>
    <path class="cls-1" d="M212.97,85.61c-.17,1.59.57,4-1.7,5.22-2.23,1.19-4.31-.04-6.22-1.14-5.38-3.1-9.04-11.92-7.58-17.94.43-1.77,1.27-3.21,3.11-3.6,2.6-.55,5,.19,6.73,2.18,3.68,4.24,5.91,9.1,5.66,15.28Z"/>
    <path class="cls-1" d="M106.31,116.86c.06,5.66-.51,5.97-6.61,3.59-1.92-6.05-2.53-12.16-1.02-18.41.71-2.94,2.39-5.16,4.83-6.81,1.37-.93,2.74-.62,3.86.57,1.03,1.1,1.06,2.32.2,3.54-3.94,5.59-2.95,11.53-1.26,17.52Z"/>
    <path class="cls-4" d="M225.04,44.32c.03,4.65-2.89,7.79-7.25,7.76-4.51-.02-7.22-3.11-7.23-8.25-.01-4.6,2.66-7.47,7.02-7.53,4.5-.07,7.43,3.08,7.46,8.02Z"/>
    <path class="cls-4" d="M162.31,188.71c-.02,3.95-2.7,7-6.24,7.09-3.6.09-6.55-3.25-6.46-7.31.09-4.17,2.62-6.85,6.4-6.79,3.64.06,6.32,3.05,6.31,7.01Z"/>
    <path class="cls-5" d="M290.38,188.63c.1,3.42-2.81,6.81-6.04,7.04-3.46.24-6.45-2.78-6.65-6.74-.21-4.16,2.27-7.07,6.05-7.1,3.64-.03,6.53,2.93,6.64,6.8Z"/>
    <path class="cls-5" d="M282.58,102.89c.06,3.61-2.95,7.17-6.11,7.23-3.24.06-6.22-3.24-6.29-7-.08-4.03,2.14-6.27,6.21-6.25,3.7.02,6.13,2.38,6.19,6.01Z"/>
    <path class="cls-4" d="M123.68,171.52c1.73-.78,3.1-.1,4.36,1.06-1.45-.35-2.9-.71-4.36-1.06Z"/>
    <polygon class="cls-4" points="115.77 171.53 116.03 171.34 116.29 171.54 116.03 171.68 115.77 171.53"/>
  </g>
</svg>