<?xml version="1.0" encoding="UTF-8"?>
<svg id="Layer_1" xmlns="http://www.w3.org/2000/svg" xmlns:xlink="http://www.w3.org/1999/xlink" viewBox="0 0 923 300">
  <defs>
    <style>
      .cls-1 {
        fill: #25a87b;
      }

      .cls-2 {
        fill: #0b435b;
      }

      .cls-3 {
        fill: none;
      }

      .cls-4 {
        fill: #f16d14;
      }

      .cls-5 {
        fill: #ed2040;
      }

      .cls-6 {
        fill: #59dea9;
      }

      .cls-7 {
        clip-path: url(#clippath);
      }
    </style>
    <clipPath id="clippath">
      <rect class="cls-3" x="0" y="0" width="923" height="300"/>
    </clipPath>
  </defs>
  <g class="cls-7">
    <g>
      <path class="cls-5" d="M551.87,196.38c-5.34,0-10.69.18-16.02-.05-4.87-.21-5.52-2.93-3.32-6.79.32-.57.79-1.1,1.31-1.51,9.76-7.6,11.85-18.57,13.66-29.89,1.61-10.09,3.92-20.07,6.08-30.06,1.23-5.7,1.12-10.66-3.32-15.43-4.49-4.81-2.49-10.37,4.22-10.93,18.79-1.58,37.8-4.12,56.38.66,19.18,4.93,20.65,26.24,9.68,38.25-3.64,3.99-7.44,8.2-12.82,10.28-1.81.7-4.42,2.04-1.14,3.91,6.98,3.97,7.99,10.79,8.96,17.58.86,6.04.16,12.5,8.54,14.33,3.61.79,1.29,3.64.13,5.26-4.03,5.66-15.83,9.35-22.95,7.37-6.58-1.83-10.54-7.88-11.07-17.12-.22-3.77-.2-7.56-.39-11.33-.23-4.66-2.1-8.46-5.7-11.61-4.65-4.07-10.84-3.28-12.69,2.43-2.59,8-4.86,15.95,1.01,24.1,4.57,6.34,1.99,10.33-5.85,10.56-4.89.14-9.79.03-14.69.03v-.04ZM582.3,145.53c6.31.43,11.8-1.8,14.84-7.72,3.32-6.45,3.39-13.44.06-19.92-2.83-5.51-8.39-5.25-13.55-4.7-4.62.49-4.01,4.58-4.66,7.72-1.16,5.66-2.34,11.32-3.49,16.99-1.38,6.82-.67,7.63,6.79,7.63Z"/>
      <path class="cls-6" d="M54.79,100.02c7.62.37,14.97-.54,22.28.75,26.61,4.67,35.88,24.74,31.88,47.92-4.28,24.84-17.63,41.19-43.29,48.19-14.34,3.91-28,2.81-41.96,1.69-4.14-.33-8.34-2.11-12.78-2.36-3.95-.23-4.67-2.82-2.85-6.16.11-.2.19-.44.36-.56,14.39-10.39,13.31-27.11,17.05-41.82,1.53-6.01,2.38-12.19,3.64-18.28,1.26-6.09,1.32-11.61-3.32-16.83-4.03-4.53-1.96-9.25,4.05-10.94,8.3-2.33,16.84-.8,24.94-1.59ZM81.6,139.4c0-2.67.25-5.36-.04-8-1.22-10.75-7.41-17.85-16.38-19.33-4.84-.8-7.8.93-8.74,5.78-3.94,20.26-7.94,40.51-11.74,60.8-.94,5.01,1.21,7.94,6.7,8.31,6.98.47,11.84-3.64,16.09-7.89,10.88-10.86,13.37-25.07,14.1-39.68Z"/>
      <path class="cls-5" d="M374.26,99.91c6.97-.5,13.77.82,20.51,2.16,14.07,2.79,25.88,15.56,27.19,29.89,2.01,21.93-4.68,40.64-21.72,55.16-1.17,1-2.55,1.81-3.93,2.5-19.89,9.92-40.51,13.45-62.32,7.22-2.49-.71-5.3-.33-7.96-.45-2.11-.1-4.04-.61-4.87-2.8-.75-1.98.33-3.63,1.74-4.67,10.42-7.75,12.42-19.23,14.34-30.95,1.69-10.3,3.95-20.51,6.15-30.72,1.15-5.36.41-9.88-3.3-14.23-4.75-5.56-2.47-10.57,4.93-11.34,4.85-.5,9.75-.56,14.62-.85,4.88-.29,9.75-.61,14.63-.91ZM395.76,137.43c-.05-.85.01-3.53-.38-6.15-1.7-11.21-7.02-17.5-16.27-19.5-5.92-1.28-8.88.62-10.02,6.51-3.86,20.03-7.73,40.05-11.54,60.09-1.13,5.97,1.33,9.2,7.33,8.87,9.31-.51,16.35-5.8,20.99-13.25,6.53-10.48,9.71-22.28,9.9-36.57Z"/>
      <path class="cls-5" d="M488.18,100.03c30.36-.04,45.82,19.88,39.36,49.45-5.04,23.08-17.75,39.55-41.59,47.34-13.24,4.33-24.52,2.69-36.3-2.8-9.01-4.2-14.39-11.71-15.99-20.87-4.4-25.27,3.72-45.96,23.85-62.38,9.83-8.02,20.98-9.74,30.66-10.75ZM460.02,162.86c-.14,4.5.19,8.97,1.51,13.23,3,9.71,11.34,12.6,19.88,7.48,6.08-3.64,9.67-8.98,12.25-15.27,5.9-14.42,9.71-29.14,5.83-44.8-1.21-4.91-3.42-9.32-9.19-10.19-6.68-1.01-12.36.9-16.49,6.43-9.54,12.78-12.85,27.58-13.79,43.12Z"/>
      <path class="cls-6" d="M251.81,101.79c2.9,0,5.8.15,8.68-.04,3.58-.23,5.94,1.48,7.7,4.31,8.04,13,16.06,26.01,24.09,39.02.86,1.39.85,3.82,3.43,3.25,1.89-.42,1.97-2.31,2.29-3.73,1.52-6.72,3.09-13.45,4.25-20.24.84-4.88,1.28-9.87-4.38-12.74-2.05-1.04-2.47-3.18-1.74-5.24.87-2.46,2.7-4.36,5.35-4.44,7.12-.2,14.25-.14,21.38-.06,2.22.02,3.86,1.26,4.25,3.53.41,2.38-.25,4.89-2.51,5.7-9.65,3.46-10.15,12.29-11.79,20.13-3.98,18.91-7.42,37.94-11.21,56.89-.68,3.4-1.22,7.35-5.71,8.12-4.14.71-5.87-2.46-7.68-5.28-9.81-15.28-19.55-30.6-29.43-45.84-2.02-3.11-4.01-8.51-7.03-8.13-3.99.5-2.88,6.12-3.62,9.64-1.92,9.14-3.73,18.31-5.74,27.43-1.13,5.16-.49,9.76,3.63,13.36,1.83,1.6,3.26,3.16,1.99,5.66-1.1,2.16-2.96,3.23-5.42,3.23-7.13,0-14.27.23-21.38-.09-4.44-.2-5.99-3.96-2.61-6.16,15.48-10.1,12.97-27.22,17.09-41.69,1.82-6.39,2.71-13.05,4.05-19.59,1.34-6.51,3.38-12.73-3.99-17.79-3.86-2.65-1.23-8.38,4.05-9.02,3.95-.48,8-.1,12.01-.1,0-.03,0-.07,0-.1Z"/>
      <path class="cls-6" d="M184.62,196.36c-4.9,0-9.79.01-14.69,0-2.23,0-4.57.17-5.76-2.35-1.27-2.7.75-4.06,2.35-5.58,2.62-2.49,4.81-5.17,4.84-9.08.05-6.19-2.96-9.4-9.11-9.48-3.56-.05-7.2.48-10.66-.11-8.17-1.39-11.59,3.6-14.39,9.8-1.51,3.34-1.87,6.44,1.75,8.75,1.58,1.01,3.03,2.21,2.23,4.3-.75,1.96-2.28,3.53-4.45,3.57-8.01.16-16.02.14-24.02.14-1.67,0-3.05-.74-3.64-2.41-.73-2.05.37-3.74,1.93-4.53,17.11-8.74,21.39-27.04,30.86-41.43,5.11-7.76,9.18-16.2,13.87-24.24,2.51-4.3,3.69-8.14.41-12.9-2.86-4.13-.3-8.46,5.03-8.85,5.75-.41,11.61-.53,17.33.07,5.37.56,9.42,3.45,10.9,9.25,3.36,13.16,4.61,26.67,7.06,39.98,1.33,7.2,2.58,14.43,3.71,21.66.69,4.45,1.6,8.55,5.14,11.92,1.9,1.81,3.88,4.46,1.91,7.73-1.67,2.79-4.08,3.86-7.24,3.82-5.12-.08-10.24-.02-15.35-.02ZM158.57,159.99c10.16,0,10.88-.77,10.02-11.05-.46-5.52-.99-11.04-1.52-16.55-.12-1.25.32-2.97-1.36-3.35-1.49-.34-2.39.98-3.03,2.14-4.16,7.57-8.3,15.15-12.39,22.76-2.12,3.94-.59,5.85,3.61,6.04,1.55.07,3.11.01,4.67.02Z"/>
      <path class="cls-5" d="M656.23,196.36c-5.33,0-10.68.19-16-.06-4.23-.2-7.34-3.44-3.61-6.31,13.85-10.65,13.44-26.65,16.94-41.22,1.5-6.25,2.31-12.67,3.7-18.95,1.46-6.57,1.61-12.42-3.67-17.9-3.79-3.93-1.54-9.37,3.97-9.64,11.31-.55,22.66-.49,33.98-.11,4.69.16,6.6,5.56,2.64,8.07-13.61,8.61-12.36,23.19-15.69,35.92-1.79,6.86-2.74,13.94-4.27,20.87-1.52,6.9-1.85,13.29,2.65,19.61,4.05,5.69,1.82,9.34-5.32,9.7-5.1.26-10.22.05-15.33.05,0-.01,0-.02,0-.04Z"/>
    </g>
    <g>
      <path class="cls-5" d="M816.77,202.81c-9,0-18,0-26.99,0-3.29,0-3.92-.54-3.94-3.84-.05-6.86.03-13.72-.03-20.58-.01-1.53.55-2.06,2.03-2.01,2.4.07,4.81.06,7.22,0,2.69-.06,4.85-1.71,4.86-3.62.01-2.39-1.69-3.75-4.8-3.77-2.32-.02-4.64-.09-6.95.02-1.56.07-2.25-.45-2.37-2.05-.71-9.36.39-18.1,7.75-24.97,2.73-2.55,2.6-5.76,1.35-8.89-.72-1.8-.26-2.19,1.46-2.18,13.81.02,27.62.02,41.43-.02,1.6,0,2.01.33,1.39,2-1.39,3.71-.8,6.91,2.21,9.94,4.45,4.47,6.98,10.01,7,16.46.04,12.92.01,25.83,0,38.75,0,3.83-.98,4.76-4.87,4.76-8.91,0-17.82,0-26.73,0h0ZM805.4,148.36c.09-1.97-1.49-2.71-2.76-3.61-1.26-.9-1.94.45-2.68,1.03-2.75,2.15-4.58,5.15-6.88,7.73-1.3,1.46-1.24,3.58-.02,5.23.73.98,1.48,2.57,3.08,2.08,1.56-.48,2.89-1.75,2.97-3.41.13-2.85,1.85-4.36,4.04-5.47,1.58-.8,2.18-1.97,2.26-3.58ZM795.67,184.57c-2.05.03-3.42,1.56-3.39,3.79.02,1.85,2.3,4.12,4.05,4.03,1.71-.08,3.27-2.07,3.26-4.15-.02-2.17-1.65-3.71-3.92-3.68Z"/>
      <path class="cls-1" d="M768.38,202.84c-4.01.12-8.07.4-11.96-.67-7.56-2.08-14.42-5.37-19.89-11.33-4.66-5.08-8.36-10.67-10.78-17.09-2.27-6.04-3.39-12.32-3.4-18.79,0-1.64.59-2.39,2.24-2.65,8.58-1.36,17.14-1.17,25.26,1.88,6.63,2.49,12.33,6.55,17.12,12.06,8.2,9.44,12.05,20.31,12.28,32.63.07,3.63-.26,3.91-3.94,3.95-2.31.03-4.63,0-6.94,0ZM738.27,168.11c.25.76.29,1.02.41,1.25,2.47,4.68,6.15,8.46,9.96,11.93,3.82,3.48,8.18,6.5,13.35,7.9.67.18,1.58.49,2.03-.05.6-.72-.39-1.19-.73-1.74-2.96-4.8-6.96-8.75-11.4-12.01-3.97-2.92-8.2-5.78-13.63-7.27Z"/>
      <path class="cls-4" d="M865.64,202.81c-2.49,0-4.99-.1-7.47.03-2.51.13-3.28-1.16-3.31-3.39-.06-5.48.85-10.8,2.54-16,2.33-7.19,6.16-13.54,11.41-18.93,2.26-2.32,4.73-4.48,7.54-6.24,10.25-6.43,21.38-7.61,33.07-5.94,1.84.26,2.57,1.09,2.51,3-.38,10.82-3.37,20.75-9.52,29.76-3.19,4.67-7.16,8.58-11.75,11.62-2.69,1.78-5.97,2.94-9.1,4.16-5.19,2.02-10.52,2.03-15.91,1.93ZM869.75,189.33c3.18-.1,6.02-.63,8.02-2.03,6.35-4.45,12.16-9.61,16.65-16.05.55-.79,1.26-1.61,1.32-3.14-11.06,4.28-19.73,10.84-26,21.21Z"/>
      <path class="cls-4" d="M743.57,140.74c-4.79-.04-8.43-2.89-11.56-5.79-4.25-3.94-7.11-9.03-7.63-15.05-.38-4.41.56-8.47,3.76-11.74,1.83-1.86,4.32-1.88,6.69-2.18,4.17,1.63,4.56,1.42,4.52-2.45,1.33-4.87,3.91-8.57,9.26-9.44,5.58-.9,10.12.68,13.89,5.19,6.63,7.92,7.57,16.67,4.75,26.2-.09.31-.42.55-.64.82-2.98,1.44-6.14,1.93-9.43,2.41-5.31.78-9.84,3.88-14.58,6.28-1.52.77-2.93,1.52-3.26,3.4,1.46.69,3.37.6,4.23,2.37ZM755.89,101.82c-.18-1.71-1.23-2.85-3.17-2.99-1.87-.13-3.29,1.37-3.25,3.35.03,2.01,1.16,3.25,3.07,3.23,1.97-.02,3.24-1.22,3.36-3.59Z"/>
      <path class="cls-2" d="M817.59,218.76c-19.42,0-38.84,0-58.26,0-3.34,0-5.36-1.69-5.38-4.5-.02-3.25,1.58-4.76,5.34-4.77,29.49-.02,58.97-.01,88.46-.01,9.44,0,18.89-.04,28.33,0,4.58.02,6.39,3.47,4.13,7.48-.98,1.74-2.45,1.8-4.09,1.8-19.51,0-39.02,0-58.53,0h0Z"/>
      <path class="cls-2" d="M816.84,124.53c-7.74,0-15.49.01-23.23,0-2.88,0-4.93-2.02-5.01-4.91-.06-2.14-.05-4.27-.04-6.41.02-5.25,1.97-7.25,7.24-7.27,14.33-.04,28.66-.03,43-.04.18,0,.36,0,.53,0,4.06.15,6.09,1.98,6.34,6.03.16,2.57.13,5.17-.02,7.74-.16,2.7-2.58,4.84-5.29,4.84-7.83.02-15.67,0-23.5,0v.02Z"/>
      <path class="cls-5" d="M898.98,115.17c3.55-.29,7.03-.55,10.16,1.83,7.06,5.39,8.02,15.29,2.29,21.12-4.48,4.56-10.12,5.6-15.17,2.92-1.56-.83-4.76-.27-6.06,1.06-3.96,4.03-9.68,5.57-14.01,3.41-8.07-4.02-9.97-13.51-6.31-19.96,3.25-5.73,10.36-7.81,16.06-4.8-.23.57-.44,1.15-.69,1.72-.59,1.31-.92,2.64.64,3.45,1.6.83,3.09.3,3.8-1.27,1.96-4.32,4.99-7.5,9.29-9.48ZM896.17,127.88c-1.73-.25-2.76.7-2.81,2.64-.05,1.89,1.56,2.6,2.88,2.86,1.79.36,3.63-1.49,3.55-3.06-.12-2.18-1.61-2.49-3.62-2.44ZM874.7,128.89c-1.27.21-2.11,1.32-2.01,2.67.13,1.79.89,3.52,3.05,3.69,1.84.14,2.34-1.35,2.53-2.77.19-1.38-1.94-3.59-3.57-3.59Z"/>
      <path class="cls-2" d="M817.03,235.18c-14.97,0-29.94,0-44.9.01-1.88,0-3.66-.3-4.62-2.06-1.09-2.01-.97-3.91.52-5.91,1.2-1.61,2.7-1.52,4.22-1.53,9.44-.06,18.89-.07,28.33-.06,20.31,0,40.62.02,60.94.04,1.77,0,3.54-.05,4.67,1.79,2.39,3.9.61,7.53-3.99,7.61-8.02.14-16.04.09-24.05.11-7.04.01-14.08,0-21.12,0Z"/>
      <path class="cls-1" d="M819.97,87.58c-1.08-4.42-.27-8.55.9-12.65,2.35-8.25,7.62-14.29,14.63-18.88,2.77-1.81,6.05-2.55,9.28-3.24,1.29-.27,2.55-.39,3.82-.95,2.62-1.14,4.29.15,4.42,3.35.36,9.36-.76,18.32-5.9,26.58-4.91,7.91-11.38,13.15-20.74,14.44-.53.07-1.06.13-1.6.13-2.46,0-2.85-.62-1.71-2.83,1.43-2.78,3.79-4.87,5.52-7.45,2.56-3.83,5.16-7.63,7.57-11.55.31-.51.94-1.11.44-1.65-.66-.72-1.31.06-1.85.41-4.05,2.64-7.36,6.05-10.33,9.84-1.25,1.6-2.59,3.13-4.45,4.45Z"/>
      <path class="cls-2" d="M817.37,242.13c7.66,0,15.32,0,22.98,0,2.51,0,4.63,2.1,4.73,4.61.12,2.81-1.33,4.46-4.27,4.72-1.5.13-3.03.07-4.54.07-13.98,0-27.97,0-41.95.02-2.28,0-4.29-.39-5.13-2.89-.83-2.47.14-4.19,1.99-5.83.91-.81,1.77-.68,2.67-.69,7.84-.04,15.68-.02,23.51-.02Z"/>
      <path class="cls-5" d="M870.99,89.16c-5.79.55-11.33-5.98-11-12.19.29-5.34,3.95-10.75,8.61-12.42,2.94-1.05,3.88-.8,4.72,2.05,1.45,4.91,4.43,8.79,7.85,12.36,1.79,1.86,1.6,3.58.15,5.13-2.77,2.95-5.92,5.36-10.33,5.06Z"/>
      <path class="cls-4" d="M777.98,54.46c1.86.05,3.15.49,3.9,1.93,5.18,10.08,10.39,20.14,15.51,30.25,1.34,2.64.44,5.45-2.15,6.86-1.42.77-2.86,1.02-4.2-.7-3.39-4.38-5.14-9.64-7.88-14.36-2.79-4.82-5.12-9.91-7.55-14.94-.94-1.95-2.07-3.84-1.12-6.3.75-1.93,2.14-2.41,3.49-2.74Z"/>
      <path class="cls-4" d="M783.07,94.34c.17,2.47-1.49,3.7-3.1,4.7-1.58.97-2.85-.04-4.2-1.15-5.53-4.54-11.21-8.88-16.81-13.33-1.93-1.53-3.87-3.07-5.65-4.77-2.29-2.19-1.92-6.13.7-7.92,1.35-.92,3-.99,4.27.03,7.76,6.24,15.45,12.57,23.17,18.86,1.21.98,1.75,2.2,1.61,3.58Z"/>
      <path class="cls-1" d="M893.48,110.64c-1.32-.51-2.43.3-3.57.67-7.09,2.25-15.58-1.09-19.03-7.59-.5-.95-.79-1.91.23-2.89,4.06-3.91,12.12-5.64,17.17-3.14,2.47,1.22,4.49,3.37,6.71,5.1-.5,2.62-1,5.23-1.5,7.85Z"/>
      <path class="cls-4" d="M743.57,140.74c-.86-1.77-2.77-1.68-4.23-2.37.33-1.88,1.74-2.63,3.26-3.4,4.74-2.4,9.27-5.5,14.58-6.28,3.28-.48,6.44-.97,9.43-2.41-1.63,4.38-2.08,8.87-1.69,13.54.27,3.25-2.48,5.21-5.68,4.19-1.75-.56-3.36-1.58-5.03-2.4-.85-.79-1.79-1.25-2.96-.73,0,0-.02,0-.03,0-1.68.21-3.36.27-5.04.01,0,0-.18-.14-.18-.14l-.18.13c-.77.18-1.52.21-2.25-.15Z"/>
      <path class="cls-2" d="M893.48,110.64c.5-2.62,1-5.24,1.5-7.85,1.08-3.17,2.15-6.35,3.25-9.51.54-1.56,1.22-3.19,3.29-2.67,2.15.54,2.31,2.28,1.75,4.05-.96,3.03-1.97,6.04-3.09,9.01-1.41,3.75-1.83,7.56-1.19,11.5-4.3,1.99-7.33,5.16-9.29,9.48-.71,1.57-2.2,2.1-3.8,1.27-1.56-.81-1.23-2.14-.64-3.45.25-.56.46-1.14.69-1.72,2.51-3.37,5.03-6.74,7.54-10.12Z"/>
      <path class="cls-1" d="M875.79,63.44c-.11-2.46.97-4.45,2.35-6.38.7-.97.95-1.09,1.93-.18,2.13,1.98,3.11,4.3,2.86,7.12-.14,1.62.33,2.36,2.04,2.09,2.5-.4,4.3,1.13,6.24,2.28.89.53.8,1.07.08,1.64-.56.44-1.15.84-1.72,1.27-1.27.95-2.04,2-.72,3.48.06.06.1.15.13.23.5,1.55,1.96,3.55.42,4.63-1.63,1.15-3.94.19-5.36-1.22-3.26-3.26-5.49-7.27-7.59-11.34-.58-1.13-.65-2.39-.67-3.63Z"/>
      <path class="cls-1" d="M812.27,82.15c-.11,1.09.39,2.74-1.16,3.57-1.53.82-2.95-.02-4.25-.78-3.68-2.12-6.18-8.15-5.19-12.26.29-1.21.87-2.19,2.13-2.46,1.78-.38,3.42.13,4.6,1.49,2.52,2.9,4.04,6.22,3.87,10.45Z"/>
      <path class="cls-1" d="M739.35,103.52c.04,3.87-.35,4.08-4.52,2.45-1.31-4.13-1.73-8.31-.7-12.58.49-2.01,1.64-3.53,3.3-4.66.94-.64,1.88-.42,2.64.39.71.75.73,1.58.14,2.42-2.7,3.82-2.02,7.88-.86,11.98Z"/>
      <path class="cls-4" d="M820.53,53.92c.02,3.18-1.98,5.32-4.95,5.31-3.09-.02-4.93-2.12-4.95-5.64,0-3.14,1.82-5.1,4.8-5.15,3.08-.05,5.08,2.11,5.1,5.48Z"/>
      <path class="cls-4" d="M777.64,152.64c-.01,2.7-1.85,4.79-4.27,4.85-2.46.06-4.48-2.22-4.42-5,.06-2.85,1.79-4.68,4.38-4.64,2.49.04,4.32,2.08,4.31,4.79Z"/>
      <path class="cls-5" d="M865.2,152.58c.07,2.34-1.92,4.66-4.13,4.81-2.37.17-4.41-1.9-4.55-4.61-.15-2.84,1.55-4.83,4.13-4.85,2.49-.02,4.46,2,4.54,4.65Z"/>
      <path class="cls-5" d="M859.86,93.97c.04,2.47-2.02,4.9-4.17,4.94-2.22.04-4.25-2.22-4.3-4.78-.06-2.76,1.46-4.28,4.25-4.27,2.53.01,4.19,1.63,4.23,4.11Z"/>
    </g>
    <path class="cls-4" d="M83.6,97.05c1.18-.53,2.12-.07,2.98.72-.99-.24-1.99-.48-2.98-.72Z"/>
    <polygon class="cls-4" points="78.19 97.06 78.37 96.93 78.55 97.06 78.37 97.16 78.19 97.06"/>
  </g>
</svg>